<svg width="100" height="100" viewBox="0 0 100 100" fill="none" xmlns="http://www.w3.org/2000/svg">
<rect width="100" height="100" rx="50" fill="#F89448"/>
<path d="M33.948 78V27.0909H51.1497C55.1435 27.0909 58.4082 27.8118 60.9437 29.2535C63.4958 30.6787 65.385 32.6094 66.6113 35.0455C67.8377 37.4815 68.4508 40.1993 68.4508 43.1989C68.4508 46.1984 67.8377 48.9245 66.6113 51.3771C65.4016 53.8298 63.5289 55.7853 60.9934 57.2436C58.4579 58.6854 55.2098 59.4062 51.2491 59.4062H38.9196V53.9375H51.0502C53.7846 53.9375 55.9804 53.4652 57.6376 52.5206C59.2948 51.576 60.4963 50.3 61.242 48.6925C62.0043 47.0684 62.3855 45.2372 62.3855 43.1989C62.3855 41.1605 62.0043 39.3376 61.242 37.7301C60.4963 36.1226 59.2865 34.8632 57.6127 33.9517C55.939 33.0237 53.7183 32.5597 50.9508 32.5597H40.1127V78H33.948Z" fill="white"/>
</svg>
